<?xml version="1.0" encoding="UTF-8"?>
<svg xmlns="http://www.w3.org/2000/svg" version="1.1" viewBox="0 0 64 64">
  <defs>
    <style>
      .cls-1 {
        fill: #0e961f;
        fill-rule: evenodd;
      }
    </style>
  </defs>
  <!-- Generator: Adobe Illustrator 28.7.1, SVG Export Plug-In . SVG Version: 1.2.0 Build 142)  -->
  <g>
    <g id="_Слой_1" data-name="Слой_1">
      <path class="cls-1" d="M63.6,44.4c-1.1-1.2-4.8-5-5.7-5.9-.5-.5-1.1-.8-1.7-.8-.5,0-1,.2-1.4.6-1,1-2.3.9-2.3-1.8s0-3.5-1.1-5.2c.8-.4,1.6-.8,2.3-1.3,2.7-1.8,5.7-5.3,5.7-10.8,0-5.9-4.2-11.3-10.9-11.3s-9.3,2.5-9.3,6.9,3.1,6.6,5.8,6.6c4.5,0,5.4-2.5,5.5-2.7.3-.9,0-1.8-1-2.2-.9-.5-1.8,0-2.3,1.2,0,0-.7,1.1-1.9,1.1h-.3c-1.2,0-3.2-1.3-3.2-3.6s1.9-4.8,6.4-4.8,8.6,4.4,8.6,8.8-3,6.5-5,8c-.9.6-1.8,1.1-2.8,1.4-1.8-1.5-3.7-2.3-6.4-2.3-4.7,0-4,2.4-13.6,2.4s-4.2-2.3-8-2.3-7-2.4-5.2-7.6c1.1.7,4.2-.8,4.2-.8,0,0,1,.2,2.7.8,1.1.3,2.6-2.1,1.7-3.1.4-.4.7-.9.3-1.2l-2.7-1.3c-.9-.8-1.8-2.8-3-2.8-5,0-9.2-1.7-9.2-1.7,0,0,0,2.4,1.9,3-2,1.1-6.4,3.9-6.4,11.4s4.3,10.2,5.4,11.1c.2.2-.4,1.2-.4,1.2h-5c-2,0-5.2,3.3-5.2,6.3s.7,2.8,1.7,2.8,1.8-.4,2.2-2.4c.4-2,1.3-3.8,4.5-3.8,2.8,0,4.1,2.6,6.3,3.6,2.5,1,6.1,0,6.1,0l5.4,9.6s-3,1.4-3,2.7,1,.8,1.4,1.2c.4.4,2,.5,2.5.5s.8-1.7,1.5-2.8c.6-.8,1.2-1,1.2-1.8,0-.4-1.4-1.6-2.1-3-1.3-2.7-2.3-6.3-2.3-6.3,0,0,2.8.2,6.9-.8,1.6-.4,4.4-2.9,6-4.4.7-.6,1.7-.6,2.3,0,1.1,1.4-1.8,2.3-1.8,5.7s3,4.3,4.5,5c.7.3.9,1.1.6,1.8,0,.1-.2.3-.3.4l-2.6,2.6s-1.3.4-3,.4-2,1-2,2.1,1.2.8,1.9.8h2.8c.8,0,1.6-.4,2.2-1,0,0,3.6-4,4.9-5.3.9-.9.9-3.2,0-5.2,2.7,1.7,4.4,0,4.4,0l2.7-2.1c.7-.5,1.6-.5,2.3,0l1.9,1.8c.7.6,1.3,2,1.3,2.9,0,1.2.2,2.6,1,3,.9.4,1.8-.2,2.3-.7.2-.2.4-.5.4-.8v-3.2c0-.3-.1-.6-.3-.8"/>
    </g>
  </g>
</svg>